<svg xmlns="http://www.w3.org/2000/svg" aria-hidden="true" style="position:absolute;width:0;height:0;overflow:hidden">
  <defs>
    <symbol id="icon-burger-btn" viewBox="0 0 32 32">
      <path d="M5.333 8h21.333v2.667H5.333V8zm5.334 6.667h16v2.667h-16v-2.667zm6.666 6.666h9.333V24h-9.333v-2.667z"/>
    </symbol>
    <symbol id="icon-caret-right" viewBox="0 0 31 32">
      <path d="m11.52 25.527 10.24-8.96-10.24-8.96v17.92z"/>
    </symbol>
    <symbol id="icon-close-btn" viewBox="0 0 32 32">
      <path d="m22.835 22.364-.471.471a.668.668 0 0 1-.943 0L16 17.414l-5.421 5.421a.668.668 0 0 1-.943 0l-.471-.471a.668.668 0 0 1 0-.943L14.586 16l-5.421-5.421a.668.668 0 0 1 0-.943l.471-.471c.26-.26.682-.26.943 0L16 14.586l5.421-5.421c.26-.26.683-.26.943 0l.471.471c.26.26.26.682 0 .943L17.414 16l5.421 5.421c.26.26.26.683 0 .943z"/>
    </symbol>
    <symbol id="icon-down-arrow-alt" viewBox="0 0 31 32">
      <path d="m23.945 16.611-1.81-1.81-5.495 5.495V8.026h-2.56v12.27l-5.495-5.495-1.81 1.81 8.585 8.585 8.585-8.585z"/>
    </symbol>
    <symbol id="icon-facebook" viewBox="0 0 31 32">
      <path d="M28.16 16.51c0-7.112-5.731-12.878-12.8-12.878S2.56 9.398 2.56 16.51c0 6.428 4.681 11.756 10.8 12.722v-8.999h-3.25V16.51h3.25v-2.837c0-3.228 1.911-5.01 4.835-5.01 1.401 0 2.865.252 2.865.252v3.169h-1.614c-1.59 0-2.086.993-2.086 2.011v2.416h3.55l-.567 3.723H17.36v8.999c6.119-.966 10.8-6.294 10.8-12.722z"/>
    </symbol>
    <symbol id="icon-Instagram" viewBox="0 0 31 32">
      <path d="M20.813 4.912h-10.407c-3.592 0-6.504 2.912-6.504 6.504v10.406c0 3.592 2.912 6.504 6.504 6.504h10.407c3.592 0 6.504-2.912 6.504-6.504v-10.406c0-3.592-2.912-6.504-6.504-6.504zM25.041 21.822c-0.007 2.332-1.896 4.221-4.228 4.228h-10.407c-2.332-0.007-4.22-1.896-4.228-4.228v-10.406c0.007-2.332 1.896-4.221 4.228-4.228h10.407c2.332 0.007 4.221 1.896 4.228 4.228v10.406zM21.789 11.741c0.718 0 1.301-0.582 1.301-1.301s-0.582-1.301-1.301-1.301c-0.718 0-1.301 0.582-1.301 1.301s0.582 1.301 1.301 1.301zM15.61 10.765c-3.233 0-5.854 2.621-5.854 5.854s2.621 5.854 5.854 5.854c3.233 0 5.854-2.621 5.854-5.854 0-1.554-0.612-3.044-1.711-4.143s-2.589-1.714-4.143-1.711z"/>
      <path fill="black" d="M12.033 16.619c0 1.976 1.602 3.577 3.577 3.577s3.577-1.602 3.577-3.577c0-1.976-1.602-3.577-3.577-3.577s-3.577 1.602-3.577 3.577z"/>
    </symbol>
    <symbol id="icon-left-arrow-alt" viewBox="0 0 32 32">
      <path d="m16.943 23.057-5.724-5.724H24v-2.667H11.219l5.724-5.724-1.885-1.885L6.115 16l8.943 8.943 1.885-1.885z"/>
    </symbol>
    <symbol id="icon-logo-icon" viewBox="0 0 32 32">
      <path d="M17.284 3.195c.38-.041.819.039 1.185.142.827.235 1.5.737 1.898 1.455.415.736.494 1.596.221 2.387-.347.976-1.092 1.466-2.022 1.917l.01 2.846c.665.189 1.311.403 1.915.728a5.591 5.591 0 0 1 2.733 3.45 5.532 5.532 0 0 1-.665 4.452 5.65 5.65 0 0 1-3.495 2.462c-1.935.451-3.576-.038-5.24-.959-.735.732-1.462 1.473-2.179 2.222.32.704.427 1.444.214 2.192-.208.732-.758 1.359-1.462 1.73-.789.416-1.688.492-2.552.261-.858-.229-1.58-.724-1.999-1.468-.413-.732-.448-1.59-.18-2.371.305-.888.925-1.435 1.797-1.841.939-.342 1.715-.23 2.631.078.763-.748 1.481-1.533 2.252-2.275-.847-1.548-1.121-2.866-.681-4.572-.959-.417-1.884-.903-2.843-1.321a3.43 3.43 0 0 1-1.875.954 3.617 3.617 0 0 1-2.525-.566c-.715-.483-1.185-1.218-1.301-2.033-.119-.791.105-1.662.648-2.286.56-.644 1.43-1.032 2.309-1.118a3.427 3.427 0 0 1 2.392.681c.855.667 1.101 1.496 1.205 2.484.909.52 1.951.92 2.899 1.384 1.233-1.358 2.134-1.786 3.931-2.303l.002-2.824a4.27 4.27 0 0 1-.923-.458c-.709-.489-1.175-1.225-1.29-2.04a2.914 2.914 0 0 1 .682-2.268c.594-.694 1.387-1.01 2.307-1.123zm3.962 14.047c-.183-1.943-2.014-3.383-4.1-3.225-2.104.16-3.667 1.885-3.483 3.845s2.046 3.405 4.148 3.221c2.083-.183 3.618-1.898 3.435-3.841zM27.276 12.524c.089-.004.175-.005.264.007.277.037.549.162.702.388.162.24.184.56.206.838.11 1.377.028 2.809.028 4.19 0 1.128.134 2.658-.091 3.745-.071.341-.314.505-.605.69-.111.013-.227.027-.339.021a.944.944 0 0 1-.648-.294c-.16-.176-.155-.529-.169-.749-.102-1.584-.016-3.218-.014-4.806.001-.903-.132-2.63.071-3.436.073-.288.352-.439.595-.593zM24.726 14.736c.3.051.565.156.74.399.269.374.277 4.041.142 4.564-.074.286-.339.426-.591.563-.288-.016-.668-.04-.86-.273-.287-.346-.263-4.243-.1-4.732.095-.284.408-.404.67-.522z"/>
    </symbol>
    <symbol id="icon-logo" viewBox="0 0 110 32">
      <path d="M16.404.142c.434-.05.936.047 1.354.174.945.288 1.713.905 2.169 1.785.474.902.564 1.957.252 2.927-.397 1.196-1.247 1.797-2.309 2.35l.012 3.489c.759.231 1.498.495 2.187.894 1.584.919 2.669 2.467 3.123 4.23a7.21 7.21 0 0 1-.76 5.459c-.887 1.493-2.3 2.597-3.993 3.019-2.211.552-4.086-.047-5.986-1.176a156.6 156.6 0 0 0-2.489 2.725c.366.864.487 1.77.244 2.687-.237.897-.866 1.666-1.67 2.121-.901.51-1.928.603-2.916.321-.981-.281-1.805-.889-2.284-1.801-.472-.897-.511-1.949-.206-2.907.348-1.089 1.057-1.759 2.053-2.257 1.072-.419 1.958-.281 3.005.096.872-.917 1.693-1.88 2.574-2.789-.968-1.898-1.281-3.515-.778-5.606-1.096-.511-2.153-1.108-3.249-1.62-.586.61-1.301 1.028-2.142 1.169-1.003.169-2.061-.105-2.885-.694a3.671 3.671 0 0 1-1.486-2.493c-.135-.97.12-2.038.741-2.803.64-.789 1.634-1.265 2.637-1.37a3.727 3.727 0 0 1 2.734.836c.976.818 1.258 1.834 1.376 3.045 1.039.637 2.229 1.129 3.311 1.698 1.409-1.665 2.439-2.191 4.492-2.824l.002-3.463a4.767 4.767 0 0 1-1.055-.561 3.715 3.715 0 0 1-1.473-2.501 3.76 3.76 0 0 1 .779-2.782C14.446.669 15.353.282 16.404.143zm4.527 17.225a4.35 4.35 0 0 0-8.664.759 4.348 4.348 0 1 0 8.664-.759zM102.107 11.958c.708.001 1.416.011 2.124.029l-.003 3.742c.545-.424 1.14-.74 1.83-.843.933-.141 1.884.1 2.636.669.908.687 1.385 1.844 1.524 2.949.174 1.401-.154 2.749-1.019 3.866-.573.554-1.263.941-2.057 1.072-1.165.191-2.089-.216-2.998-.894l-.004.817-2.032-.003-.001-11.404zm3.641 4.904c-.632.21-1.07.51-1.378 1.118-.343.675-.366 1.508-.099 2.211.203.539.585 1.004 1.118 1.244.386.175.749.18 1.164.155.659-.249 1.103-.569 1.402-1.229.312-.689.306-1.52.01-2.214-.227-.533-.632-.963-1.177-1.174-.34-.131-.682-.149-1.041-.111zM41.272 11.936c1.246 3.84 2.84 7.575 4.055 11.425l-2.296.003c-.269-.822-.529-1.752-.94-2.512-.268-.115-.586-.076-.873-.073a122.7 122.7 0 0 1-3.323-.012c-.348.849-.628 1.722-.903 2.596l-2.339-.002c1.221-3.833 2.678-7.617 3.997-11.42.872.019 1.749-.001 2.621-.005zm-1.309 2.839c-.483 1.374-.933 2.768-1.463 4.125l1.681-.001 1.305-.015c-.184-.518-1.25-3.881-1.524-4.109zM89.686 11.961l2.196.013c-.03 2.647-.007 5.298-.007 7.945-.001 1.093.11 2.287-.012 3.365l-.121.083h-2.058l-.004-4.889c-1.645-.046-3.303-.005-4.949-.003l.001 4.894-2.209-.004.009-11.401 2.201.005.001 4.661h4.957l-.003-4.67zM93.203 15.121c.729.021 1.46.013 2.188.017-.009 1.165-.193 4.384.089 5.347.111.38.333.728.693.913.541.278 1.09.117 1.628-.072.238-.266.443-.515.561-.859.386-1.123.18-4.006.174-5.343.694.019 1.391.004 2.085 0-.016.8-.003 1.603-.004 2.404l.011 5.834c-.683.01-1.365.005-2.047-.015l-.063-.074c.01-.173.012-.314-.018-.487-.639.277-1.209.697-1.936.712-.843.017-1.758-.245-2.364-.851-.459-.459-.739-1.076-.883-1.703-.31-1.348-.127-4.332-.113-5.824zM63.686 14.891c1.089-.085 2.224-.008 3.104.725.617.514.816 1.13.883 1.897l-1.968-.002c-.113-.21-.227-.454-.404-.619a1.505 1.505 0 0 0-1.078-.377c-.298.016-.679.135-.865.387-.113.154-.175.311-.132.503.224 1.009 2.79.884 3.607 1.419.52.341.919.951 1.034 1.56a2.292 2.292 0 0 1-.408 1.775c-.627.865-1.593 1.175-2.599 1.329-.931.056-2.011-.194-2.756-.761-.699-.532-.95-1.185-1.045-2.025.663.001 1.326-.005 1.989-.018.039.125.082.245.145.361.289.533.865.651 1.4.808.353-.081.831-.172 1.082-.457.151-.172.204-.471.14-.691-.245-.843-2.703-.943-3.556-1.468-.505-.311-.876-.764-1.011-1.349-.121-.53-.075-1.125.223-1.59.538-.84 1.28-1.185 2.216-1.408zM76.93 14.889c.62-.05 1.227-.047 1.831.117.697.189 1.438.578 1.79 1.239.169.316.3.886.186 1.237-.565.122-1.255.04-1.835.033-.085-.287-.158-.509-.391-.707a1.415 1.415 0 0 0-1.062-.322c-.3.031-.685.178-.852.447-.1.16-.141.325-.078.509.362 1.068 2.535.814 3.38 1.296.538.308.988.849 1.141 1.454.164.65.056 1.372-.319 1.931-.56.835-1.449 1.149-2.388 1.331-.922.114-1.989-.082-2.759-.613-.791-.545-1.028-1.229-1.206-2.123l1.973-.015c.12.302.229.537.485.746.341.279.745.406 1.184.347.341-.045.676-.202.88-.487.133-.187.2-.414.136-.642-.247-.878-2.426-.823-3.29-1.288-.584-.315-1.046-.838-1.231-1.481a2.017 2.017 0 0 1 .196-1.599c.477-.81 1.353-1.206 2.231-1.409zM52.641 12.857c.655.023 1.315.009 1.97.011-.007.74.004 1.48.032 2.219l1.944.001-.004 1.694-1.851-.001c.001 1.066-.243 3.817.246 4.641.382.301 1.145.189 1.609.183l-.007 1.404c.004.145.004.218-.07.344-.259.124-.524.152-.81.154-.752.007-1.791-.129-2.331-.693-1.086-1.131-.739-4.457-.734-6.035l-1.254.002.004-1.698 1.249.008.007-2.236zM69.54 12.848l1.934.011c-.015.741.016 1.485.03 2.226l1.976-.004-.003 1.702-1.859-.001c.023 1.015-.226 3.85.234 4.617.494.295 1.113.216 1.669.215-.007.489.003.979.005 1.469l-.023.186c-.191.202-.486.194-.747.2-.794.019-1.891-.107-2.467-.71-1.075-1.125-.74-4.405-.731-5.978l-1.323.001c-.017-.564-.01-1.129-.015-1.692l1.318.007.004-2.249zM27.82 11.582c.102-.005.2-.007.301.008.316.046.628.198.802.476.185.294.21.687.235 1.028.125 1.688.032 3.444.032 5.138 0 1.384.153 3.26-.104 4.592-.081.419-.359.619-.691.846-.127.015-.259.033-.387.026a1.043 1.043 0 0 1-.74-.361c-.183-.216-.177-.648-.193-.919-.116-1.942-.018-3.946-.016-5.893.001-1.107-.151-3.225.082-4.213.083-.353.402-.539.68-.727zM50.243 15.058l.278-.003c.329.368.166 1.535.155 2.018-.696-.007-1.354-.035-1.899.471-1.023.949-.678 4.425-.688 5.82-.548-.005-1.617.195-2.035-.154l-.022-.346c.01-2.586-.055-5.169-.038-7.754.664.021 1.33.007 1.994.003l-.023 1.142c.123-.177.246-.366.389-.527.503-.568 1.186-.619 1.891-.669zM57.796 15.092l2.086.001.005 8.275-2.11-.003.019-8.273zM24.907 14.293c.342.063.645.192.845.489.308.459.316 4.955.162 5.596-.084.351-.388.522-.676.691-.329-.02-.763-.049-.983-.335-.327-.425-.3-5.203-.114-5.802.108-.348.466-.495.765-.639zM58.701 11.683a1.153 1.153 0 1 1 .27 2.29 1.153 1.153 0 0 1-.27-2.29z"/>
    </symbol>
    <symbol id="icon-right-arrow" viewBox="0 0 32 32">
      <path d="M7.381 29.181a1.343 1.343 0 0 0 1.378-.085l17.333-12a1.33 1.33 0 0 0 .422-1.715 1.327 1.327 0 0 0-.422-.477l-17.333-12a1.327 1.327 0 0 0-2.092 1.095v24a1.333 1.333 0 0 0 .714 1.181zM9.333 6.545 22.99 16 9.333 25.455V6.546z"/>
    </symbol>
    <symbol id="icon-right-arrow-alt" viewBox="0 0 32 32">
      <path d="m15.057 23.057 1.885 1.885 8.943-8.943-8.943-8.943-1.885 1.885 5.724 5.724H8v2.667h12.781l-5.724 5.724z"/>
    </symbol>
    <symbol id="icon-search" viewBox="0 0 32 32">
      <path d="M13.333 24a10.603 10.603 0 0 0 6.529-2.251l5.861 5.861 1.885-1.885-5.861-5.861a10.602 10.602 0 0 0 2.252-6.531c0-5.881-4.785-10.667-10.667-10.667S2.665 7.451 2.665 13.333C2.665 19.214 7.45 24 13.332 24zm0-18.667c4.412 0 8 3.588 8 8s-3.588 8-8 8-8-3.588-8-8 3.588-8 8-8z"/>
    </symbol>
    <symbol id="icon-youtube" viewBox="0 0 31 32">
      <path d="M27.639 9.981a3.199 3.199 0 0 0-2.255-2.261c-2.004-.55-10.024-.559-10.024-.559s-8.018-.009-10.024.517a3.272 3.272 0 0 0-2.261 2.275c-.529 2.004-.534 6.162-.534 6.162s-.005 4.178.52 6.162a3.204 3.204 0 0 0 2.257 2.259c2.025.55 10.022.559 10.022.559s8.019.009 10.024-.516a3.221 3.221 0 0 0 2.262-2.257c.53-2.003.534-6.159.534-6.159s.026-4.179-.521-6.184zm-14.844 9.987.006-7.68 6.665 3.846-6.671 3.834z"/>
    </symbol>
    <symbol viewBox="0 0 20 20">
      <path id="icon-stars" d="M9.07 1.318c.345-.817 1.515-.817 1.86 0l2.028 4.819c.145.344.473.58.849.609l5.266.417c.892.07 1.254 1.17.574 1.746l-4.012 3.395a.987.987 0 0 0-.325.986l1.226 5.077c.208.86-.74 1.54-1.503 1.079l-4.508-2.72a1.017 1.017 0 0 0-1.05 0l-4.508 2.72c-.764.46-1.711-.22-1.503-1.08l1.225-5.076a.987.987 0 0 0-.324-.986L.353 8.91c-.68-.575-.318-1.675.574-1.746l5.266-.417c.376-.03.704-.265.849-.61l2.029-4.818Z"/>
    </symbol>
  </defs>
</svg>